<svg width="20" height="20" viewBox="0 0 20 20" fill="none" xmlns="http://www.w3.org/2000/svg">
<g clip-path="url(#clip0_1_8)">
<path d="M19.7633 8.27083H12.775L8.69333 12.37H14.2992C13.5617 14.0158 11.9117 14.9208 9.99917 14.9208C7.4125 14.9208 5.3 12.6958 5.3 10.1117C5.3 7.51667 7.41333 5.35 10 5.35C10.945 5.35 11.8242 5.59583 12.5508 6.07583L16.3358 2.275C14.6175 0.859167 12.4108 0 10 0C4.475 0 0 4.4725 0 10C0 15.5192 4.475 20 10 20C15.525 20 20 15.7375 20 10.2183C20 9.47167 19.9142 9.09333 19.7633 8.27083Z" fill="#7A04DD"/>
</g>
<defs>
<clipPath id="clip0_1_8">
<rect width="20" height="20" fill="white"/>
</clipPath>
</defs>
</svg>
