<svg width="30" height="30" viewBox="0 0 30 30" fill="none" xmlns="http://www.w3.org/2000/svg">
<g clip-path="url(#clip0_1_8)">
<path d="M29.645 12.4063H19.1625L13.04 18.555H21.4488C20.3425 21.0237 17.8675 22.3813 14.9987 22.3813C11.1187 22.3813 7.95 19.0437 7.95 15.1675C7.95 11.275 11.12 8.025 15 8.025C16.4175 8.025 17.7362 8.39375 18.8262 9.11375L24.5038 3.4125C21.9263 1.28875 18.6162 0 15 0C6.7125 0 0 6.70875 0 15C0 23.2788 6.7125 30 15 30C23.2875 30 30 23.6063 30 15.3275C30 14.2075 29.8712 13.64 29.645 12.4063Z" fill="#7A04DD"/>
</g>
<defs>
<clipPath id="clip0_1_8">
<rect width="30" height="30" fill="white"/>
</clipPath>
</defs>
</svg>
